# xmcd
# Track frame offsets:
# 150
# 13801
# 27620
# 40471
# 53342
# 65531
# 79405
# 93557
# 105444
# 119847
#
# Disc length: 1794 seconds
# Revision: 0
# Processed by: cddbd v1.4PL0 Copyright (c) Steve Scherf et al.
# Submitted via: VisiTrax 2.9.5.181 - For more info visit www.synapsa.com
#
DISCID=8807000a
DTITLE=Gary Stewart - Greatest Hits
DYEAR=1900
DGENRE=
TTITLE0=Drinkin' Thing
TTITLE1=Out Of Hand
TTITLE2=She's Actin' Sing;e (I'm Drinkin' Doubles)
TTITLE3=Flat Natural Born Good Timin' Man
TTITLE4=Quits
TTITLE5=Ten Years Of This
TTITLE6=Whiskey Trip
TTITLE7=Single Again
TTITLE8=Your Place Or Mine
TTITLE9=Let's Forget That We're Married
EXTD=
EXTT0=
EXTT1=
EXTT2=
EXTT3=
EXTT4=
EXTT5=
EXTT6=
EXTT7=
EXTT8=
EXTT9=
PLAYORDER=
